<svg width="500" height="500" viewBox="0 0 500 500" fill="none" xmlns="http://www.w3.org/2000/svg">
<g id="MandanaLogo">
<g id="SoftwareDev">
<path d="M108.09 319.518C111.272 319.518 113.866 317.611 113.866 314.335C113.866 307.966 104.746 309.528 104.746 305.059C104.746 303.19 106.277 302.283 108.027 302.283C109.465 302.283 110.647 302.877 111.397 303.94L112.96 302.627C111.928 301.315 110.116 300.283 107.965 300.283C105.09 300.283 102.751 302.158 102.751 305.216C102.751 311.242 111.866 309.747 111.866 314.398C111.866 316.393 110.21 317.518 108.121 317.518C105.996 317.518 104.465 316.361 103.814 314.648L102.001 315.71C102.97 318.018 105.309 319.518 108.09 319.518Z" fill="white"/>
<path d="M135.757 319.518C141.095 319.518 145.377 315.21 145.377 309.903C145.377 304.591 141.095 300.283 135.757 300.283C130.45 300.283 126.142 304.591 126.142 309.903C126.142 315.21 130.45 319.518 135.757 319.518ZM135.757 317.518C131.543 317.518 128.137 314.148 128.137 309.903C128.137 305.653 131.543 302.283 135.757 302.283C140.002 302.283 143.377 305.653 143.377 309.903C143.377 314.148 140.002 317.518 135.757 317.518Z" fill="white"/>
<path d="M169.449 302.471V300.533H159.21V319.268H161.204V310.867H168.387V308.934H161.204V302.471H169.449Z" fill="white"/>
<path d="M192.497 300.533H180.132V302.533H185.315V319.268H187.315V302.533H192.497V300.533Z" fill="white"/>
<path d="M226.004 300.533L221.196 315.929L216.639 300.533H213.826L209.332 315.898L204.556 300.533H202.431L208.3 319.268H210.425L215.233 302.658L220.134 319.268H222.228L228.066 300.533H226.004Z" fill="white"/>
<path d="M251.296 319.268H253.479L246.703 300.533H244.489L237.713 319.268H239.901L241.427 314.898H249.765L251.296 319.268ZM242.083 312.992L245.614 302.908L249.109 312.992H242.083Z" fill="white"/>
<path d="M273.185 310.71C275.653 310.367 277.528 308.309 277.528 305.778C277.528 302.846 275.185 300.533 272.31 300.533H265.601V319.268H267.596V310.804H271.127L276.435 319.268H278.711L273.185 310.71ZM267.596 308.903V302.533H272.19C274.06 302.533 275.528 303.846 275.528 305.716C275.528 307.622 274.091 308.903 272.19 308.903H267.596Z" fill="white"/>
<path d="M301.511 302.471V300.533H291.271V319.268H301.511V317.33H293.266V310.867H300.448V308.934H293.266V302.471H301.511Z" fill="white"/>
<path d="M332.872 319.268H337.992C343.143 319.268 347.357 315.085 347.357 309.903C347.357 304.716 343.143 300.533 337.992 300.533H332.872V319.268ZM334.836 317.268V302.533H337.961C342.112 302.533 345.362 305.684 345.362 309.903C345.362 314.117 342.112 317.268 337.961 317.268H334.836Z" fill="white"/>
<path d="M371.403 302.471V300.533H361.164V319.268H371.403V317.33H363.158V310.867H370.341V308.934H363.158V302.471H371.403Z" fill="white"/>
<path d="M396.699 300.533L391.017 316.705L385.335 300.533H383.116L389.892 319.268H392.105L398.882 300.533H396.699Z" fill="white"/>
</g>
<g id="SoftwareDev (Stroke)">
<mask id="path-2-outside-1_1_2" maskUnits="userSpaceOnUse" x="100.001" y="298.283" width="301" height="23" fill="black">
<rect fill="white" x="100.001" y="298.283" width="301" height="23"/>
<path fill-rule="evenodd" clip-rule="evenodd" d="M159.21 300.533H169.449V302.471H161.204V308.934H168.387V310.867H161.204V319.268H159.21V300.533ZM220.134 319.268H222.228L228.066 300.533H226.004L221.196 315.929L216.639 300.533H213.826L209.332 315.898L204.556 300.533H202.431L208.3 319.268H210.425L215.233 302.658L220.134 319.268ZM207.269 312.631L203.819 301.533H203.792L207.269 312.631ZM250.514 314.01L252.006 318.268H252.054L250.514 314.01ZM253.479 319.268H251.296L249.765 314.898H241.427L239.901 319.268H237.713L244.489 300.533H246.703L253.479 319.268ZM240.659 314.064L239.138 318.268H239.191L240.659 314.064ZM265.601 300.533H272.31C275.185 300.533 277.528 302.846 277.528 305.778C277.528 307.944 276.155 309.763 274.212 310.458C273.885 310.575 273.541 310.661 273.185 310.71L278.711 319.268H276.435L271.127 310.804H267.596V319.268H265.601V300.533ZM276.448 306.576C276.499 306.312 276.526 306.035 276.528 305.747C276.528 305.758 276.528 305.768 276.528 305.778C276.528 306.052 276.501 306.319 276.448 306.576ZM274.464 302.122C273.799 301.743 273.018 301.533 272.19 301.533H272.31C273.096 301.533 273.833 301.747 274.464 302.122ZM291.271 319.268V300.533H301.511V302.471H293.266V308.934H300.448V310.867H293.266V317.33H301.511V319.268H291.271ZM332.872 319.268H337.992C343.143 319.268 347.357 315.085 347.357 309.903C347.357 304.716 343.143 300.533 337.992 300.533H332.872V319.268ZM361.164 319.268V300.533H371.403V302.471H363.158V308.934H370.341V310.867H363.158V317.33H371.403V319.268H361.164ZM385.335 300.533H383.116L389.892 319.268H392.105L398.882 300.533H396.699L391.017 316.705L385.335 300.533ZM397.408 301.533L395.751 306.248L397.456 301.533H397.408ZM387.523 309.779L384.626 301.533H384.541L387.523 309.779ZM112.866 314.368C112.866 314.357 112.866 314.346 112.866 314.335C112.866 313.023 112.413 312.185 111.749 311.549C111.039 310.869 110.054 310.387 108.916 309.905C108.735 309.829 108.547 309.751 108.356 309.672C107.424 309.288 106.407 308.868 105.609 308.325C104.627 307.658 103.826 306.707 103.752 305.277C103.766 306.448 104.199 307.206 104.85 307.8C105.562 308.45 106.55 308.917 107.697 309.401C107.837 309.46 107.979 309.519 108.124 309.579C109.1 309.985 110.178 310.433 111.022 311.034C112.051 311.766 112.856 312.809 112.866 314.368ZM112.617 315.83C112.386 316.465 112.006 316.984 111.525 317.392C111.281 317.599 111.005 317.781 110.701 317.936C110.947 317.809 111.179 317.662 111.395 317.492C111.948 317.057 112.369 316.495 112.617 315.83ZM108.106 318.518C108.1 318.518 108.095 318.518 108.09 318.518C106.013 318.518 104.282 317.564 103.329 316.091L103.403 316.048C104.367 317.556 106.021 318.513 108.106 318.518ZM103.814 314.648C103.935 314.966 104.086 315.266 104.266 315.542C105.055 316.751 106.391 317.518 108.121 317.518C110.21 317.518 111.866 316.393 111.866 314.398C111.866 312.223 109.872 311.392 107.75 310.507C105.334 309.5 102.751 308.423 102.751 305.216C102.751 302.158 105.09 300.283 107.965 300.283C109.697 300.283 111.21 300.952 112.272 301.898C112.437 302.045 112.591 302.198 112.733 302.357C112.812 302.445 112.888 302.536 112.96 302.627L111.397 303.94C111.267 303.755 111.124 303.585 110.969 303.43C110.229 302.689 109.216 302.283 108.027 302.283C106.277 302.283 104.746 303.19 104.746 305.059C104.746 307.096 106.641 307.88 108.703 308.733C111.165 309.752 113.866 310.869 113.866 314.335C113.866 317.611 111.272 319.518 108.09 319.518C105.309 319.518 102.97 318.018 102.001 315.71L103.814 314.648ZM111.496 302.551L111.497 302.55C111.484 302.539 111.472 302.529 111.459 302.518C111.471 302.529 111.483 302.54 111.496 302.551ZM107.996 301.283C107.985 301.283 107.975 301.283 107.965 301.283C107.371 301.283 106.818 301.377 106.32 301.549C106.856 301.37 107.428 301.286 107.996 301.283ZM180.132 302.533V300.533H192.497V302.533H187.315V319.268H185.315V302.533H180.132ZM242.083 312.992H249.109L245.614 302.908L242.083 312.992ZM338.816 318.227C338.535 318.254 338.25 318.268 337.961 318.268H337.992C338.27 318.268 338.545 318.254 338.816 318.227ZM338.815 301.573C338.544 301.547 338.27 301.533 337.992 301.533H337.961C338.249 301.533 338.534 301.547 338.815 301.573ZM135.757 319.518C141.095 319.518 145.377 315.21 145.377 309.903C145.377 304.591 141.095 300.283 135.757 300.283C130.45 300.283 126.142 304.591 126.142 309.903C126.142 315.21 130.45 319.518 135.757 319.518ZM135.757 317.518C131.543 317.518 128.137 314.148 128.137 309.903C128.137 305.653 131.543 302.283 135.757 302.283C140.002 302.283 143.377 305.653 143.377 309.903C143.377 314.148 140.002 317.518 135.757 317.518ZM267.596 308.903H272.19C274.091 308.903 275.528 307.622 275.528 305.716C275.528 303.846 274.06 302.533 272.19 302.533H267.596V308.903ZM334.836 317.268H337.961C342.112 317.268 345.362 314.117 345.362 309.903C345.362 305.684 342.112 302.533 337.961 302.533H334.836V317.268Z"/>
</mask>
<path fill-rule="evenodd" clip-rule="evenodd" d="M159.21 300.533H169.449V302.471H161.204V308.934H168.387V310.867H161.204V319.268H159.21V300.533ZM220.134 319.268H222.228L228.066 300.533H226.004L221.196 315.929L216.639 300.533H213.826L209.332 315.898L204.556 300.533H202.431L208.3 319.268H210.425L215.233 302.658L220.134 319.268ZM207.269 312.631L203.819 301.533H203.792L207.269 312.631ZM250.514 314.01L252.006 318.268H252.054L250.514 314.01ZM253.479 319.268H251.296L249.765 314.898H241.427L239.901 319.268H237.713L244.489 300.533H246.703L253.479 319.268ZM240.659 314.064L239.138 318.268H239.191L240.659 314.064ZM265.601 300.533H272.31C275.185 300.533 277.528 302.846 277.528 305.778C277.528 307.944 276.155 309.763 274.212 310.458C273.885 310.575 273.541 310.661 273.185 310.71L278.711 319.268H276.435L271.127 310.804H267.596V319.268H265.601V300.533ZM276.448 306.576C276.499 306.312 276.526 306.035 276.528 305.747C276.528 305.758 276.528 305.768 276.528 305.778C276.528 306.052 276.501 306.319 276.448 306.576ZM274.464 302.122C273.799 301.743 273.018 301.533 272.19 301.533H272.31C273.096 301.533 273.833 301.747 274.464 302.122ZM291.271 319.268V300.533H301.511V302.471H293.266V308.934H300.448V310.867H293.266V317.33H301.511V319.268H291.271ZM332.872 319.268H337.992C343.143 319.268 347.357 315.085 347.357 309.903C347.357 304.716 343.143 300.533 337.992 300.533H332.872V319.268ZM361.164 319.268V300.533H371.403V302.471H363.158V308.934H370.341V310.867H363.158V317.33H371.403V319.268H361.164ZM385.335 300.533H383.116L389.892 319.268H392.105L398.882 300.533H396.699L391.017 316.705L385.335 300.533ZM397.408 301.533L395.751 306.248L397.456 301.533H397.408ZM387.523 309.779L384.626 301.533H384.541L387.523 309.779ZM112.866 314.368C112.866 314.357 112.866 314.346 112.866 314.335C112.866 313.023 112.413 312.185 111.749 311.549C111.039 310.869 110.054 310.387 108.916 309.905C108.735 309.829 108.547 309.751 108.356 309.672C107.424 309.288 106.407 308.868 105.609 308.325C104.627 307.658 103.826 306.707 103.752 305.277C103.766 306.448 104.199 307.206 104.85 307.8C105.562 308.45 106.55 308.917 107.697 309.401C107.837 309.46 107.979 309.519 108.124 309.579C109.1 309.985 110.178 310.433 111.022 311.034C112.051 311.766 112.856 312.809 112.866 314.368ZM112.617 315.83C112.386 316.465 112.006 316.984 111.525 317.392C111.281 317.599 111.005 317.781 110.701 317.936C110.947 317.809 111.179 317.662 111.395 317.492C111.948 317.057 112.369 316.495 112.617 315.83ZM108.106 318.518C108.1 318.518 108.095 318.518 108.09 318.518C106.013 318.518 104.282 317.564 103.329 316.091L103.403 316.048C104.367 317.556 106.021 318.513 108.106 318.518ZM103.814 314.648C103.935 314.966 104.086 315.266 104.266 315.542C105.055 316.751 106.391 317.518 108.121 317.518C110.21 317.518 111.866 316.393 111.866 314.398C111.866 312.223 109.872 311.392 107.75 310.507C105.334 309.5 102.751 308.423 102.751 305.216C102.751 302.158 105.09 300.283 107.965 300.283C109.697 300.283 111.21 300.952 112.272 301.898C112.437 302.045 112.591 302.198 112.733 302.357C112.812 302.445 112.888 302.536 112.96 302.627L111.397 303.94C111.267 303.755 111.124 303.585 110.969 303.43C110.229 302.689 109.216 302.283 108.027 302.283C106.277 302.283 104.746 303.19 104.746 305.059C104.746 307.096 106.641 307.88 108.703 308.733C111.165 309.752 113.866 310.869 113.866 314.335C113.866 317.611 111.272 319.518 108.09 319.518C105.309 319.518 102.97 318.018 102.001 315.71L103.814 314.648ZM111.496 302.551L111.497 302.55C111.484 302.539 111.472 302.529 111.459 302.518C111.471 302.529 111.483 302.54 111.496 302.551ZM107.996 301.283C107.985 301.283 107.975 301.283 107.965 301.283C107.371 301.283 106.818 301.377 106.32 301.549C106.856 301.37 107.428 301.286 107.996 301.283ZM180.132 302.533V300.533H192.497V302.533H187.315V319.268H185.315V302.533H180.132ZM242.083 312.992H249.109L245.614 302.908L242.083 312.992ZM338.816 318.227C338.535 318.254 338.25 318.268 337.961 318.268H337.992C338.27 318.268 338.545 318.254 338.816 318.227ZM338.815 301.573C338.544 301.547 338.27 301.533 337.992 301.533H337.961C338.249 301.533 338.534 301.547 338.815 301.573ZM135.757 319.518C141.095 319.518 145.377 315.21 145.377 309.903C145.377 304.591 141.095 300.283 135.757 300.283C130.45 300.283 126.142 304.591 126.142 309.903C126.142 315.21 130.45 319.518 135.757 319.518ZM135.757 317.518C131.543 317.518 128.137 314.148 128.137 309.903C128.137 305.653 131.543 302.283 135.757 302.283C140.002 302.283 143.377 305.653 143.377 309.903C143.377 314.148 140.002 317.518 135.757 317.518ZM267.596 308.903H272.19C274.091 308.903 275.528 307.622 275.528 305.716C275.528 303.846 274.06 302.533 272.19 302.533H267.596V308.903ZM334.836 317.268H337.961C342.112 317.268 345.362 314.117 345.362 309.903C345.362 305.684 342.112 302.533 337.961 302.533H334.836V317.268Z" fill="white"/>
<path fill-rule="evenodd" clip-rule="evenodd" d="M159.21 300.533H169.449V302.471H161.204V308.934H168.387V310.867H161.204V319.268H159.21V300.533ZM220.134 319.268H222.228L228.066 300.533H226.004L221.196 315.929L216.639 300.533H213.826L209.332 315.898L204.556 300.533H202.431L208.3 319.268H210.425L215.233 302.658L220.134 319.268ZM207.269 312.631L203.819 301.533H203.792L207.269 312.631ZM250.514 314.01L252.006 318.268H252.054L250.514 314.01ZM253.479 319.268H251.296L249.765 314.898H241.427L239.901 319.268H237.713L244.489 300.533H246.703L253.479 319.268ZM240.659 314.064L239.138 318.268H239.191L240.659 314.064ZM265.601 300.533H272.31C275.185 300.533 277.528 302.846 277.528 305.778C277.528 307.944 276.155 309.763 274.212 310.458C273.885 310.575 273.541 310.661 273.185 310.71L278.711 319.268H276.435L271.127 310.804H267.596V319.268H265.601V300.533ZM276.448 306.576C276.499 306.312 276.526 306.035 276.528 305.747C276.528 305.758 276.528 305.768 276.528 305.778C276.528 306.052 276.501 306.319 276.448 306.576ZM274.464 302.122C273.799 301.743 273.018 301.533 272.19 301.533H272.31C273.096 301.533 273.833 301.747 274.464 302.122ZM291.271 319.268V300.533H301.511V302.471H293.266V308.934H300.448V310.867H293.266V317.33H301.511V319.268H291.271ZM332.872 319.268H337.992C343.143 319.268 347.357 315.085 347.357 309.903C347.357 304.716 343.143 300.533 337.992 300.533H332.872V319.268ZM361.164 319.268V300.533H371.403V302.471H363.158V308.934H370.341V310.867H363.158V317.33H371.403V319.268H361.164ZM385.335 300.533H383.116L389.892 319.268H392.105L398.882 300.533H396.699L391.017 316.705L385.335 300.533ZM397.408 301.533L395.751 306.248L397.456 301.533H397.408ZM387.523 309.779L384.626 301.533H384.541L387.523 309.779ZM112.866 314.368C112.866 314.357 112.866 314.346 112.866 314.335C112.866 313.023 112.413 312.185 111.749 311.549C111.039 310.869 110.054 310.387 108.916 309.905C108.735 309.829 108.547 309.751 108.356 309.672C107.424 309.288 106.407 308.868 105.609 308.325C104.627 307.658 103.826 306.707 103.752 305.277C103.766 306.448 104.199 307.206 104.85 307.8C105.562 308.45 106.55 308.917 107.697 309.401C107.837 309.46 107.979 309.519 108.124 309.579C109.1 309.985 110.178 310.433 111.022 311.034C112.051 311.766 112.856 312.809 112.866 314.368ZM112.617 315.83C112.386 316.465 112.006 316.984 111.525 317.392C111.281 317.599 111.005 317.781 110.701 317.936C110.947 317.809 111.179 317.662 111.395 317.492C111.948 317.057 112.369 316.495 112.617 315.83ZM108.106 318.518C108.1 318.518 108.095 318.518 108.09 318.518C106.013 318.518 104.282 317.564 103.329 316.091L103.403 316.048C104.367 317.556 106.021 318.513 108.106 318.518ZM103.814 314.648C103.935 314.966 104.086 315.266 104.266 315.542C105.055 316.751 106.391 317.518 108.121 317.518C110.21 317.518 111.866 316.393 111.866 314.398C111.866 312.223 109.872 311.392 107.75 310.507C105.334 309.5 102.751 308.423 102.751 305.216C102.751 302.158 105.09 300.283 107.965 300.283C109.697 300.283 111.21 300.952 112.272 301.898C112.437 302.045 112.591 302.198 112.733 302.357C112.812 302.445 112.888 302.536 112.96 302.627L111.397 303.94C111.267 303.755 111.124 303.585 110.969 303.43C110.229 302.689 109.216 302.283 108.027 302.283C106.277 302.283 104.746 303.19 104.746 305.059C104.746 307.096 106.641 307.88 108.703 308.733C111.165 309.752 113.866 310.869 113.866 314.335C113.866 317.611 111.272 319.518 108.09 319.518C105.309 319.518 102.97 318.018 102.001 315.71L103.814 314.648ZM111.496 302.551L111.497 302.55C111.484 302.539 111.472 302.529 111.459 302.518C111.471 302.529 111.483 302.54 111.496 302.551ZM107.996 301.283C107.985 301.283 107.975 301.283 107.965 301.283C107.371 301.283 106.818 301.377 106.32 301.549C106.856 301.37 107.428 301.286 107.996 301.283ZM180.132 302.533V300.533H192.497V302.533H187.315V319.268H185.315V302.533H180.132ZM242.083 312.992H249.109L245.614 302.908L242.083 312.992ZM338.816 318.227C338.535 318.254 338.25 318.268 337.961 318.268H337.992C338.27 318.268 338.545 318.254 338.816 318.227ZM338.815 301.573C338.544 301.547 338.27 301.533 337.992 301.533H337.961C338.249 301.533 338.534 301.547 338.815 301.573ZM135.757 319.518C141.095 319.518 145.377 315.21 145.377 309.903C145.377 304.591 141.095 300.283 135.757 300.283C130.45 300.283 126.142 304.591 126.142 309.903C126.142 315.21 130.45 319.518 135.757 319.518ZM135.757 317.518C131.543 317.518 128.137 314.148 128.137 309.903C128.137 305.653 131.543 302.283 135.757 302.283C140.002 302.283 143.377 305.653 143.377 309.903C143.377 314.148 140.002 317.518 135.757 317.518ZM267.596 308.903H272.19C274.091 308.903 275.528 307.622 275.528 305.716C275.528 303.846 274.06 302.533 272.19 302.533H267.596V308.903ZM334.836 317.268H337.961C342.112 317.268 345.362 314.117 345.362 309.903C345.362 305.684 342.112 302.533 337.961 302.533H334.836V317.268Z" stroke="white" stroke-width="2" mask="url(#path-2-outside-1_1_2)"/>
</g>
<g id="Frames">
<path id="FrameBottom" d="M449.99 388.896V286.036H447.229V386.125H53.0625V286.036H50.2968V388.896H449.99Z" fill="white"/>
<path id="FrameTop" d="M50.0052 111.104V213.964H52.7656V113.875H446.932V213.964H449.693V111.104H50.0052Z" fill="white"/>
</g>
<g id="Mandana">
<mask id="path-5-outside-2_1_2" maskUnits="userSpaceOnUse" x="29.5569" y="209.754" width="444" height="64" fill="black">
<rect fill="white" x="29.5569" y="209.754" width="444" height="64"/>
<path d="M123.337 251.955C123.16 251.231 122.431 250.867 121.796 251.137C114.452 253.403 106.837 256.309 99.4884 259.117C87.155 263.835 73.1915 269.184 70.655 266.466C70.379 262.929 78.9988 251.049 79.0873 250.867C82.1707 246.695 85.3425 242.617 88.5196 238.622C91.6029 234.726 94.4102 231.19 96.9519 227.377C97.4936 226.471 98.3113 225.205 97.3165 223.934C96.1342 222.575 94.5925 223.299 93.6863 223.752C86.7019 227.106 81.0821 231.372 75.4571 236.356L75.004 236.721C72.7384 238.716 70.1081 240.893 66.9363 243.611C66.5717 243.976 66.1186 244.247 65.5769 244.518L65.6654 244.429C65.8477 243.794 66.03 243.247 66.3009 242.794C67.2956 240.981 68.4779 238.986 69.7488 236.992C71.8321 233.908 73.5561 231.278 75.4571 228.83C76.1863 227.835 76.9102 226.653 77.5457 225.382C77.8165 224.841 77.9102 223.752 77.5457 223.21C77.1811 222.664 76.4571 222.21 75.004 223.028C66.3894 228.195 57.8686 236.992 51.4311 244.158C44.7175 251.502 38.5509 259.57 32.4779 268.82C32.0248 269.455 31.7488 270.002 31.5717 270.544C31.4779 271.091 31.8425 271.815 32.2956 271.997C32.3842 272.085 32.5665 272.085 32.6602 272.085C33.1134 272.085 33.5665 271.815 33.655 271.721C33.9259 271.544 34.0196 271.361 34.1967 271.091C34.1967 271.091 34.1967 270.997 34.2904 270.908C34.8321 270.091 35.4675 269.184 36.0144 268.278C37.28 266.372 38.6446 264.377 40.004 262.476C50.3425 248.236 61.0404 236.903 72.8321 227.835C72.9206 227.742 72.9206 227.742 73.0092 227.742C72.9206 227.835 72.9206 227.924 72.8321 228.012C70.4727 231.278 68.2956 234.361 66.2123 237.627C64.9415 239.622 63.9415 241.799 63.0352 243.7C62.6759 244.611 61.9467 246.242 63.3998 247.33C66.5717 249.96 81.6238 234.544 83.53 233.002C87.2488 230.007 90.7852 228.012 94.504 226.294C93.504 228.012 92.3269 229.554 91.1498 231.007C84.4363 239.622 77.9102 247.512 72.4675 256.309C69.5665 261.205 64.1238 269.726 73.1915 269.726C78.4519 269.726 87.4311 266.466 100.4 261.476C107.744 258.664 115.27 255.762 122.525 253.585C123.249 253.315 123.613 252.591 123.337 251.955Z"/>
<path d="M177.645 251.861C177.463 251.137 176.645 250.867 176.009 251.049C174.468 251.684 171.478 252.679 171.478 252.679C160.775 256.851 144.452 261.929 141.733 260.57C141.551 260.476 141.551 260.387 141.551 260.299C141.463 259.299 142.551 257.398 144.364 255.127C146.265 253.226 147.353 251.955 150.077 248.601C150.619 247.33 148.353 247.148 147.629 247.059C147.171 247.059 146.812 247.059 146.358 247.059C146.541 244.518 144.723 242.434 142.275 241.887C136.473 240.44 130.853 243.794 126.317 247.148C123.598 249.325 120.421 251.32 118.973 254.585C118.244 256.851 121.239 257.575 122.869 256.94C130.489 255.039 137.744 252.044 145.629 250.049C144.181 251.408 141.187 255.127 141.187 255.127C139.739 257.216 138.832 259.21 139.009 260.658C139.103 261.565 139.645 262.382 140.551 262.835C141.098 263.106 142.004 263.289 143.093 263.289C149.801 263.289 164.494 258.028 170.478 255.763C174.379 254.403 176.827 253.497 176.916 253.497C177.369 253.315 177.645 252.95 177.733 252.497C177.733 252.226 177.733 252.044 177.645 251.861ZM143.457 247.966C136.108 249.867 129.129 252.773 121.78 254.492C125.77 250.414 130.489 246.695 135.931 244.7C138.65 243.7 144.999 243.523 143.457 247.966Z"/>
<path d="M234.308 251.861C234.037 251.231 233.313 250.867 232.678 251.137C222.704 254.768 213.813 257.851 206.287 260.205C205.022 260.658 203.839 260.934 202.662 261.294C198.037 262.476 193.412 264.195 188.605 263.835C190.511 258.94 194.589 255.492 197.767 251.502C199.126 250.143 197.767 247.783 195.86 248.236C188.97 249.054 182.438 251.591 176.183 254.585C179.173 250.684 182.892 247.695 186.339 244.247C186.157 242.794 184.886 242.252 183.798 243.247C179.173 247.236 174.459 251.502 171.647 257.033C171.464 259.21 174.006 258.846 175.183 258.028C181.35 254.674 188.063 252.226 194.954 250.867C192.053 254.132 188.97 257.216 186.975 261.023C186.339 262.294 185.704 264.106 186.881 265.283C188.787 267.096 191.871 266.466 194.23 266.101C198.673 265.195 207.287 262.565 207.287 262.565C220.527 258.304 233.402 253.585 233.584 253.497C234.22 253.315 234.579 252.591 234.308 251.861Z"/>
<path d="M306.121 251.861C305.85 251.137 305.121 250.867 304.485 251.049C296.053 254.132 288.074 257.398 280.095 260.841C269.485 265.466 258.423 270.361 255.246 268.914C254.61 268.637 254.251 268.184 254.069 267.46C252.891 263.106 258.423 252.95 262.865 246.059C270.121 241.887 277.553 237.992 284.266 233.002C289.433 229.195 294.605 224.929 298.048 219.398C299.501 217.221 299.683 213.778 297.235 212.143C294.058 210.877 290.886 212.96 288.345 214.684C277.464 222.21 268.668 232.367 261.141 243.158C260.324 244.611 258.694 245.153 257.334 245.971C255.339 243.882 252.438 242.976 249.626 242.976C241.464 243.07 233.845 248.054 229.673 254.768C228.496 256.486 228.678 259.752 231.308 259.934C234.933 259.846 248.266 252.408 258.329 248.419C257.605 249.69 256.881 250.955 256.152 252.32C252.256 259.57 250.714 264.924 251.621 268.096C251.985 269.549 252.891 270.637 254.157 271.179C254.886 271.544 255.699 271.632 256.699 271.632C261.412 271.632 269.485 268.278 281.089 263.2C289.162 259.664 297.506 256.216 305.303 253.497C306.027 253.226 306.303 252.497 306.121 251.861ZM245.272 251.684C240.74 253.768 236.386 256.486 231.397 257.575C232.668 253.856 235.839 251.137 239.016 248.96C243.548 246.059 249.626 244.335 254.793 246.783C251.891 248.96 248.449 250.049 245.272 251.684ZM291.069 216.044C292.61 214.867 294.511 214.32 296.506 214.32C296.871 218.221 293.787 221.033 291.339 223.664C283.813 231.007 274.834 236.627 265.496 241.434C272.751 231.825 280.912 222.575 291.069 216.044Z"/>
<path d="M360.519 251.861C360.337 251.137 359.519 250.867 358.884 251.049C357.342 251.684 354.353 252.679 354.353 252.679C343.649 256.851 327.326 261.929 324.608 260.57C324.425 260.476 324.425 260.387 324.425 260.299C324.337 259.299 325.425 257.398 327.238 255.127C329.139 253.226 330.228 251.955 332.951 248.601C333.493 247.33 331.228 247.148 330.504 247.059C330.045 247.059 329.686 247.059 329.233 247.059C329.415 244.518 327.597 242.434 325.149 241.887C319.347 240.44 313.728 243.794 309.191 247.148C306.472 249.325 303.295 251.32 301.847 254.585C301.118 256.851 304.113 257.575 305.743 256.94C313.363 255.039 320.618 252.044 328.504 250.049C327.056 251.408 324.061 255.127 324.061 255.127C322.613 257.216 321.707 259.21 321.884 260.658C321.978 261.565 322.519 262.382 323.425 262.835C323.972 263.106 324.879 263.289 325.967 263.289C332.675 263.289 347.368 258.028 353.353 255.763C357.254 254.403 359.701 253.497 359.79 253.497C360.243 253.315 360.519 252.95 360.608 252.497C360.608 252.226 360.608 252.044 360.519 251.861ZM326.332 247.966C318.983 249.867 312.004 252.773 304.655 254.492C308.644 250.414 313.363 246.695 318.806 244.7C321.524 243.7 327.873 243.523 326.332 247.966Z"/>
<path d="M417.183 251.861C416.912 251.231 416.188 250.867 415.552 251.137C405.578 254.768 396.688 257.851 389.162 260.205C387.896 260.658 386.714 260.934 385.537 261.294C380.912 262.476 376.287 264.195 371.479 263.835C373.386 258.94 377.464 255.492 380.641 251.502C382 250.143 380.641 247.783 378.735 248.236C371.844 249.054 365.313 251.591 359.058 254.585C362.047 250.684 365.766 247.695 369.214 244.247C369.032 242.794 367.761 242.252 366.672 243.247C362.047 247.236 357.334 251.502 354.521 257.033C354.339 259.21 356.881 258.846 358.058 258.028C364.224 254.674 370.938 252.226 377.828 250.867C374.927 254.132 371.844 257.216 369.849 261.023C369.214 262.294 368.578 264.106 369.756 265.283C371.662 267.096 374.745 266.466 377.104 266.101C381.547 265.195 390.162 262.565 390.162 262.565C403.401 258.304 416.276 253.585 416.459 253.497C417.094 253.315 417.453 252.591 417.183 251.861Z"/>
<path d="M471.495 251.861C471.313 251.137 470.495 250.867 469.86 251.049C468.318 251.684 465.328 252.679 465.328 252.679C454.625 256.851 438.302 261.929 435.583 260.57C435.401 260.476 435.401 260.387 435.401 260.299C435.313 259.299 436.401 257.398 438.214 255.127C440.115 253.226 441.203 251.955 443.927 248.601C444.469 247.33 442.203 247.148 441.479 247.059C441.021 247.059 440.662 247.059 440.208 247.059C440.391 244.518 438.573 242.434 436.125 241.887C430.323 240.44 424.703 243.794 420.167 247.148C417.448 249.325 414.271 251.32 412.823 254.585C412.094 256.851 415.089 257.575 416.719 256.94C424.339 255.039 431.594 252.044 439.479 250.049C438.031 251.408 435.037 255.127 435.037 255.127C433.589 257.216 432.682 259.21 432.86 260.658C432.953 261.565 433.495 262.382 434.401 262.835C434.948 263.106 435.854 263.289 436.943 263.289C443.651 263.289 458.344 258.028 464.328 255.763C468.229 254.403 470.677 253.497 470.766 253.497C471.219 253.315 471.495 252.95 471.583 252.497C471.583 252.226 471.584 252.044 471.495 251.861ZM437.307 247.966C429.959 249.867 422.979 252.773 415.63 254.492C419.62 250.414 424.339 246.695 429.781 244.7C432.5 243.7 438.849 243.523 437.307 247.966Z"/>
</mask>
<path d="M123.337 251.955C123.16 251.231 122.431 250.867 121.796 251.137C114.452 253.403 106.837 256.309 99.4884 259.117C87.155 263.835 73.1915 269.184 70.655 266.466C70.379 262.929 78.9988 251.049 79.0873 250.867C82.1707 246.695 85.3425 242.617 88.5196 238.622C91.6029 234.726 94.4102 231.19 96.9519 227.377C97.4936 226.471 98.3113 225.205 97.3165 223.934C96.1342 222.575 94.5925 223.299 93.6863 223.752C86.7019 227.106 81.0821 231.372 75.4571 236.356L75.004 236.721C72.7384 238.716 70.1081 240.893 66.9363 243.611C66.5717 243.976 66.1186 244.247 65.5769 244.518L65.6654 244.429C65.8477 243.794 66.03 243.247 66.3009 242.794C67.2956 240.981 68.4779 238.986 69.7488 236.992C71.8321 233.908 73.5561 231.278 75.4571 228.83C76.1863 227.835 76.9102 226.653 77.5457 225.382C77.8165 224.841 77.9102 223.752 77.5457 223.21C77.1811 222.664 76.4571 222.21 75.004 223.028C66.3894 228.195 57.8686 236.992 51.4311 244.158C44.7175 251.502 38.5509 259.57 32.4779 268.82C32.0248 269.455 31.7488 270.002 31.5717 270.544C31.4779 271.091 31.8425 271.815 32.2956 271.997C32.3842 272.085 32.5665 272.085 32.6602 272.085C33.1134 272.085 33.5665 271.815 33.655 271.721C33.9259 271.544 34.0196 271.361 34.1967 271.091C34.1967 271.091 34.1967 270.997 34.2904 270.908C34.8321 270.091 35.4675 269.184 36.0144 268.278C37.28 266.372 38.6446 264.377 40.004 262.476C50.3425 248.236 61.0404 236.903 72.8321 227.835C72.9206 227.742 72.9206 227.742 73.0092 227.742C72.9206 227.835 72.9206 227.924 72.8321 228.012C70.4727 231.278 68.2956 234.361 66.2123 237.627C64.9415 239.622 63.9415 241.799 63.0352 243.7C62.6759 244.611 61.9467 246.242 63.3998 247.33C66.5717 249.96 81.6238 234.544 83.53 233.002C87.2488 230.007 90.7852 228.012 94.504 226.294C93.504 228.012 92.3269 229.554 91.1498 231.007C84.4363 239.622 77.9102 247.512 72.4675 256.309C69.5665 261.205 64.1238 269.726 73.1915 269.726C78.4519 269.726 87.4311 266.466 100.4 261.476C107.744 258.664 115.27 255.762 122.525 253.585C123.249 253.315 123.613 252.591 123.337 251.955Z" fill="white"/>
<path d="M177.645 251.861C177.463 251.137 176.645 250.867 176.009 251.049C174.468 251.684 171.478 252.679 171.478 252.679C160.775 256.851 144.452 261.929 141.733 260.57C141.551 260.476 141.551 260.387 141.551 260.299C141.463 259.299 142.551 257.398 144.364 255.127C146.265 253.226 147.353 251.955 150.077 248.601C150.619 247.33 148.353 247.148 147.629 247.059C147.171 247.059 146.812 247.059 146.358 247.059C146.541 244.518 144.723 242.434 142.275 241.887C136.473 240.44 130.853 243.794 126.317 247.148C123.598 249.325 120.421 251.32 118.973 254.585C118.244 256.851 121.239 257.575 122.869 256.94C130.489 255.039 137.744 252.044 145.629 250.049C144.181 251.408 141.187 255.127 141.187 255.127C139.739 257.216 138.832 259.21 139.009 260.658C139.103 261.565 139.645 262.382 140.551 262.835C141.098 263.106 142.004 263.289 143.093 263.289C149.801 263.289 164.494 258.028 170.478 255.763C174.379 254.403 176.827 253.497 176.916 253.497C177.369 253.315 177.645 252.95 177.733 252.497C177.733 252.226 177.733 252.044 177.645 251.861ZM143.457 247.966C136.108 249.867 129.129 252.773 121.78 254.492C125.77 250.414 130.489 246.695 135.931 244.7C138.65 243.7 144.999 243.523 143.457 247.966Z" fill="white"/>
<path d="M234.308 251.861C234.037 251.231 233.313 250.867 232.678 251.137C222.704 254.768 213.813 257.851 206.287 260.205C205.022 260.658 203.839 260.934 202.662 261.294C198.037 262.476 193.412 264.195 188.605 263.835C190.511 258.94 194.589 255.492 197.767 251.502C199.126 250.143 197.767 247.783 195.86 248.236C188.97 249.054 182.438 251.591 176.183 254.585C179.173 250.684 182.892 247.695 186.339 244.247C186.157 242.794 184.886 242.252 183.798 243.247C179.173 247.236 174.459 251.502 171.647 257.033C171.464 259.21 174.006 258.846 175.183 258.028C181.35 254.674 188.063 252.226 194.954 250.867C192.053 254.132 188.97 257.216 186.975 261.023C186.339 262.294 185.704 264.106 186.881 265.283C188.787 267.096 191.871 266.466 194.23 266.101C198.673 265.195 207.287 262.565 207.287 262.565C220.527 258.304 233.402 253.585 233.584 253.497C234.22 253.315 234.579 252.591 234.308 251.861Z" fill="white"/>
<path d="M306.121 251.861C305.85 251.137 305.121 250.867 304.485 251.049C296.053 254.132 288.074 257.398 280.095 260.841C269.485 265.466 258.423 270.361 255.246 268.914C254.61 268.637 254.251 268.184 254.069 267.46C252.891 263.106 258.423 252.95 262.865 246.059C270.121 241.887 277.553 237.992 284.266 233.002C289.433 229.195 294.605 224.929 298.048 219.398C299.501 217.221 299.683 213.778 297.235 212.143C294.058 210.877 290.886 212.96 288.345 214.684C277.464 222.21 268.668 232.367 261.141 243.158C260.324 244.611 258.694 245.153 257.334 245.971C255.339 243.882 252.438 242.976 249.626 242.976C241.464 243.07 233.845 248.054 229.673 254.768C228.496 256.486 228.678 259.752 231.308 259.934C234.933 259.846 248.266 252.408 258.329 248.419C257.605 249.69 256.881 250.955 256.152 252.32C252.256 259.57 250.714 264.924 251.621 268.096C251.985 269.549 252.891 270.637 254.157 271.179C254.886 271.544 255.699 271.632 256.699 271.632C261.412 271.632 269.485 268.278 281.089 263.2C289.162 259.664 297.506 256.216 305.303 253.497C306.027 253.226 306.303 252.497 306.121 251.861ZM245.272 251.684C240.74 253.768 236.386 256.486 231.397 257.575C232.668 253.856 235.839 251.137 239.016 248.96C243.548 246.059 249.626 244.335 254.793 246.783C251.891 248.96 248.449 250.049 245.272 251.684ZM291.069 216.044C292.61 214.867 294.511 214.32 296.506 214.32C296.871 218.221 293.787 221.033 291.339 223.664C283.813 231.007 274.834 236.627 265.496 241.434C272.751 231.825 280.912 222.575 291.069 216.044Z" fill="white"/>
<path d="M360.519 251.861C360.337 251.137 359.519 250.867 358.884 251.049C357.342 251.684 354.353 252.679 354.353 252.679C343.649 256.851 327.326 261.929 324.608 260.57C324.425 260.476 324.425 260.387 324.425 260.299C324.337 259.299 325.425 257.398 327.238 255.127C329.139 253.226 330.228 251.955 332.951 248.601C333.493 247.33 331.228 247.148 330.504 247.059C330.045 247.059 329.686 247.059 329.233 247.059C329.415 244.518 327.597 242.434 325.149 241.887C319.347 240.44 313.728 243.794 309.191 247.148C306.472 249.325 303.295 251.32 301.847 254.585C301.118 256.851 304.113 257.575 305.743 256.94C313.363 255.039 320.618 252.044 328.504 250.049C327.056 251.408 324.061 255.127 324.061 255.127C322.613 257.216 321.707 259.21 321.884 260.658C321.978 261.565 322.519 262.382 323.425 262.835C323.972 263.106 324.879 263.289 325.967 263.289C332.675 263.289 347.368 258.028 353.353 255.763C357.254 254.403 359.701 253.497 359.79 253.497C360.243 253.315 360.519 252.95 360.608 252.497C360.608 252.226 360.608 252.044 360.519 251.861ZM326.332 247.966C318.983 249.867 312.004 252.773 304.655 254.492C308.644 250.414 313.363 246.695 318.806 244.7C321.524 243.7 327.873 243.523 326.332 247.966Z" fill="white"/>
<path d="M417.183 251.861C416.912 251.231 416.188 250.867 415.552 251.137C405.578 254.768 396.688 257.851 389.162 260.205C387.896 260.658 386.714 260.934 385.537 261.294C380.912 262.476 376.287 264.195 371.479 263.835C373.386 258.94 377.464 255.492 380.641 251.502C382 250.143 380.641 247.783 378.735 248.236C371.844 249.054 365.313 251.591 359.058 254.585C362.047 250.684 365.766 247.695 369.214 244.247C369.032 242.794 367.761 242.252 366.672 243.247C362.047 247.236 357.334 251.502 354.521 257.033C354.339 259.21 356.881 258.846 358.058 258.028C364.224 254.674 370.938 252.226 377.828 250.867C374.927 254.132 371.844 257.216 369.849 261.023C369.214 262.294 368.578 264.106 369.756 265.283C371.662 267.096 374.745 266.466 377.104 266.101C381.547 265.195 390.162 262.565 390.162 262.565C403.401 258.304 416.276 253.585 416.459 253.497C417.094 253.315 417.453 252.591 417.183 251.861Z" fill="white"/>
<path d="M471.495 251.861C471.313 251.137 470.495 250.867 469.86 251.049C468.318 251.684 465.328 252.679 465.328 252.679C454.625 256.851 438.302 261.929 435.583 260.57C435.401 260.476 435.401 260.387 435.401 260.299C435.313 259.299 436.401 257.398 438.214 255.127C440.115 253.226 441.203 251.955 443.927 248.601C444.469 247.33 442.203 247.148 441.479 247.059C441.021 247.059 440.662 247.059 440.208 247.059C440.391 244.518 438.573 242.434 436.125 241.887C430.323 240.44 424.703 243.794 420.167 247.148C417.448 249.325 414.271 251.32 412.823 254.585C412.094 256.851 415.089 257.575 416.719 256.94C424.339 255.039 431.594 252.044 439.479 250.049C438.031 251.408 435.037 255.127 435.037 255.127C433.589 257.216 432.682 259.21 432.86 260.658C432.953 261.565 433.495 262.382 434.401 262.835C434.948 263.106 435.854 263.289 436.943 263.289C443.651 263.289 458.344 258.028 464.328 255.763C468.229 254.403 470.677 253.497 470.766 253.497C471.219 253.315 471.495 252.95 471.583 252.497C471.583 252.226 471.584 252.044 471.495 251.861ZM437.307 247.966C429.959 249.867 422.979 252.773 415.63 254.492C419.62 250.414 424.339 246.695 429.781 244.7C432.5 243.7 438.849 243.523 437.307 247.966Z" fill="white"/>
<path d="M123.337 251.955C123.16 251.231 122.431 250.867 121.796 251.137C114.452 253.403 106.837 256.309 99.4884 259.117C87.155 263.835 73.1915 269.184 70.655 266.466C70.379 262.929 78.9988 251.049 79.0873 250.867C82.1707 246.695 85.3425 242.617 88.5196 238.622C91.6029 234.726 94.4102 231.19 96.9519 227.377C97.4936 226.471 98.3113 225.205 97.3165 223.934C96.1342 222.575 94.5925 223.299 93.6863 223.752C86.7019 227.106 81.0821 231.372 75.4571 236.356L75.004 236.721C72.7384 238.716 70.1081 240.893 66.9363 243.611C66.5717 243.976 66.1186 244.247 65.5769 244.518L65.6654 244.429C65.8477 243.794 66.03 243.247 66.3009 242.794C67.2956 240.981 68.4779 238.986 69.7488 236.992C71.8321 233.908 73.5561 231.278 75.4571 228.83C76.1863 227.835 76.9102 226.653 77.5457 225.382C77.8165 224.841 77.9102 223.752 77.5457 223.21C77.1811 222.664 76.4571 222.21 75.004 223.028C66.3894 228.195 57.8686 236.992 51.4311 244.158C44.7175 251.502 38.5509 259.57 32.4779 268.82C32.0248 269.455 31.7488 270.002 31.5717 270.544C31.4779 271.091 31.8425 271.815 32.2956 271.997C32.3842 272.085 32.5665 272.085 32.6602 272.085C33.1134 272.085 33.5665 271.815 33.655 271.721C33.9259 271.544 34.0196 271.361 34.1967 271.091C34.1967 271.091 34.1967 270.997 34.2904 270.908C34.8321 270.091 35.4675 269.184 36.0144 268.278C37.28 266.372 38.6446 264.377 40.004 262.476C50.3425 248.236 61.0404 236.903 72.8321 227.835C72.9206 227.742 72.9206 227.742 73.0092 227.742C72.9206 227.835 72.9206 227.924 72.8321 228.012C70.4727 231.278 68.2956 234.361 66.2123 237.627C64.9415 239.622 63.9415 241.799 63.0352 243.7C62.6759 244.611 61.9467 246.242 63.3998 247.33C66.5717 249.96 81.6238 234.544 83.53 233.002C87.2488 230.007 90.7852 228.012 94.504 226.294C93.504 228.012 92.3269 229.554 91.1498 231.007C84.4363 239.622 77.9102 247.512 72.4675 256.309C69.5665 261.205 64.1238 269.726 73.1915 269.726C78.4519 269.726 87.4311 266.466 100.4 261.476C107.744 258.664 115.27 255.762 122.525 253.585C123.249 253.315 123.613 252.591 123.337 251.955Z" stroke="white" stroke-width="2" mask="url(#path-5-outside-2_1_2)"/>
<path d="M177.645 251.861C177.463 251.137 176.645 250.867 176.009 251.049C174.468 251.684 171.478 252.679 171.478 252.679C160.775 256.851 144.452 261.929 141.733 260.57C141.551 260.476 141.551 260.387 141.551 260.299C141.463 259.299 142.551 257.398 144.364 255.127C146.265 253.226 147.353 251.955 150.077 248.601C150.619 247.33 148.353 247.148 147.629 247.059C147.171 247.059 146.812 247.059 146.358 247.059C146.541 244.518 144.723 242.434 142.275 241.887C136.473 240.44 130.853 243.794 126.317 247.148C123.598 249.325 120.421 251.32 118.973 254.585C118.244 256.851 121.239 257.575 122.869 256.94C130.489 255.039 137.744 252.044 145.629 250.049C144.181 251.408 141.187 255.127 141.187 255.127C139.739 257.216 138.832 259.21 139.009 260.658C139.103 261.565 139.645 262.382 140.551 262.835C141.098 263.106 142.004 263.289 143.093 263.289C149.801 263.289 164.494 258.028 170.478 255.763C174.379 254.403 176.827 253.497 176.916 253.497C177.369 253.315 177.645 252.95 177.733 252.497C177.733 252.226 177.733 252.044 177.645 251.861ZM143.457 247.966C136.108 249.867 129.129 252.773 121.78 254.492C125.77 250.414 130.489 246.695 135.931 244.7C138.65 243.7 144.999 243.523 143.457 247.966Z" stroke="white" stroke-width="2" mask="url(#path-5-outside-2_1_2)"/>
<path d="M234.308 251.861C234.037 251.231 233.313 250.867 232.678 251.137C222.704 254.768 213.813 257.851 206.287 260.205C205.022 260.658 203.839 260.934 202.662 261.294C198.037 262.476 193.412 264.195 188.605 263.835C190.511 258.94 194.589 255.492 197.767 251.502C199.126 250.143 197.767 247.783 195.86 248.236C188.97 249.054 182.438 251.591 176.183 254.585C179.173 250.684 182.892 247.695 186.339 244.247C186.157 242.794 184.886 242.252 183.798 243.247C179.173 247.236 174.459 251.502 171.647 257.033C171.464 259.21 174.006 258.846 175.183 258.028C181.35 254.674 188.063 252.226 194.954 250.867C192.053 254.132 188.97 257.216 186.975 261.023C186.339 262.294 185.704 264.106 186.881 265.283C188.787 267.096 191.871 266.466 194.23 266.101C198.673 265.195 207.287 262.565 207.287 262.565C220.527 258.304 233.402 253.585 233.584 253.497C234.22 253.315 234.579 252.591 234.308 251.861Z" stroke="white" stroke-width="2" mask="url(#path-5-outside-2_1_2)"/>
<path d="M306.121 251.861C305.85 251.137 305.121 250.867 304.485 251.049C296.053 254.132 288.074 257.398 280.095 260.841C269.485 265.466 258.423 270.361 255.246 268.914C254.61 268.637 254.251 268.184 254.069 267.46C252.891 263.106 258.423 252.95 262.865 246.059C270.121 241.887 277.553 237.992 284.266 233.002C289.433 229.195 294.605 224.929 298.048 219.398C299.501 217.221 299.683 213.778 297.235 212.143C294.058 210.877 290.886 212.96 288.345 214.684C277.464 222.21 268.668 232.367 261.141 243.158C260.324 244.611 258.694 245.153 257.334 245.971C255.339 243.882 252.438 242.976 249.626 242.976C241.464 243.07 233.845 248.054 229.673 254.768C228.496 256.486 228.678 259.752 231.308 259.934C234.933 259.846 248.266 252.408 258.329 248.419C257.605 249.69 256.881 250.955 256.152 252.32C252.256 259.57 250.714 264.924 251.621 268.096C251.985 269.549 252.891 270.637 254.157 271.179C254.886 271.544 255.699 271.632 256.699 271.632C261.412 271.632 269.485 268.278 281.089 263.2C289.162 259.664 297.506 256.216 305.303 253.497C306.027 253.226 306.303 252.497 306.121 251.861ZM245.272 251.684C240.74 253.768 236.386 256.486 231.397 257.575C232.668 253.856 235.839 251.137 239.016 248.96C243.548 246.059 249.626 244.335 254.793 246.783C251.891 248.96 248.449 250.049 245.272 251.684ZM291.069 216.044C292.61 214.867 294.511 214.32 296.506 214.32C296.871 218.221 293.787 221.033 291.339 223.664C283.813 231.007 274.834 236.627 265.496 241.434C272.751 231.825 280.912 222.575 291.069 216.044Z" stroke="white" stroke-width="2" mask="url(#path-5-outside-2_1_2)"/>
<path d="M360.519 251.861C360.337 251.137 359.519 250.867 358.884 251.049C357.342 251.684 354.353 252.679 354.353 252.679C343.649 256.851 327.326 261.929 324.608 260.57C324.425 260.476 324.425 260.387 324.425 260.299C324.337 259.299 325.425 257.398 327.238 255.127C329.139 253.226 330.228 251.955 332.951 248.601C333.493 247.33 331.228 247.148 330.504 247.059C330.045 247.059 329.686 247.059 329.233 247.059C329.415 244.518 327.597 242.434 325.149 241.887C319.347 240.44 313.728 243.794 309.191 247.148C306.472 249.325 303.295 251.32 301.847 254.585C301.118 256.851 304.113 257.575 305.743 256.94C313.363 255.039 320.618 252.044 328.504 250.049C327.056 251.408 324.061 255.127 324.061 255.127C322.613 257.216 321.707 259.21 321.884 260.658C321.978 261.565 322.519 262.382 323.425 262.835C323.972 263.106 324.879 263.289 325.967 263.289C332.675 263.289 347.368 258.028 353.353 255.763C357.254 254.403 359.701 253.497 359.79 253.497C360.243 253.315 360.519 252.95 360.608 252.497C360.608 252.226 360.608 252.044 360.519 251.861ZM326.332 247.966C318.983 249.867 312.004 252.773 304.655 254.492C308.644 250.414 313.363 246.695 318.806 244.7C321.524 243.7 327.873 243.523 326.332 247.966Z" stroke="white" stroke-width="2" mask="url(#path-5-outside-2_1_2)"/>
<path d="M417.183 251.861C416.912 251.231 416.188 250.867 415.552 251.137C405.578 254.768 396.688 257.851 389.162 260.205C387.896 260.658 386.714 260.934 385.537 261.294C380.912 262.476 376.287 264.195 371.479 263.835C373.386 258.94 377.464 255.492 380.641 251.502C382 250.143 380.641 247.783 378.735 248.236C371.844 249.054 365.313 251.591 359.058 254.585C362.047 250.684 365.766 247.695 369.214 244.247C369.032 242.794 367.761 242.252 366.672 243.247C362.047 247.236 357.334 251.502 354.521 257.033C354.339 259.21 356.881 258.846 358.058 258.028C364.224 254.674 370.938 252.226 377.828 250.867C374.927 254.132 371.844 257.216 369.849 261.023C369.214 262.294 368.578 264.106 369.756 265.283C371.662 267.096 374.745 266.466 377.104 266.101C381.547 265.195 390.162 262.565 390.162 262.565C403.401 258.304 416.276 253.585 416.459 253.497C417.094 253.315 417.453 252.591 417.183 251.861Z" stroke="white" stroke-width="2" mask="url(#path-5-outside-2_1_2)"/>
<path d="M471.495 251.861C471.313 251.137 470.495 250.867 469.86 251.049C468.318 251.684 465.328 252.679 465.328 252.679C454.625 256.851 438.302 261.929 435.583 260.57C435.401 260.476 435.401 260.387 435.401 260.299C435.313 259.299 436.401 257.398 438.214 255.127C440.115 253.226 441.203 251.955 443.927 248.601C444.469 247.33 442.203 247.148 441.479 247.059C441.021 247.059 440.662 247.059 440.208 247.059C440.391 244.518 438.573 242.434 436.125 241.887C430.323 240.44 424.703 243.794 420.167 247.148C417.448 249.325 414.271 251.32 412.823 254.585C412.094 256.851 415.089 257.575 416.719 256.94C424.339 255.039 431.594 252.044 439.479 250.049C438.031 251.408 435.037 255.127 435.037 255.127C433.589 257.216 432.682 259.21 432.86 260.658C432.953 261.565 433.495 262.382 434.401 262.835C434.948 263.106 435.854 263.289 436.943 263.289C443.651 263.289 458.344 258.028 464.328 255.763C468.229 254.403 470.677 253.497 470.766 253.497C471.219 253.315 471.495 252.95 471.583 252.497C471.583 252.226 471.584 252.044 471.495 251.861ZM437.307 247.966C429.959 249.867 422.979 252.773 415.63 254.492C419.62 250.414 424.339 246.695 429.781 244.7C432.5 243.7 438.849 243.523 437.307 247.966Z" stroke="white" stroke-width="2" mask="url(#path-5-outside-2_1_2)"/>
</g>
</g>
</svg>
